HIERARCHY
ROOT Hips
{
	OFFSET 0.000000 0.000000 0.000000
	CHANNELS 6 Xposition Yposition Zposition Zrotation Yrotation Xrotation 
	JOINT LHipJoint
	{
		OFFSET 0.000000 0.000000 0.000000
		CHANNELS 3 Zrotation Yrotation Xrotation
		JOINT LeftUpLeg
		{
			OFFSET 1.363060 -1.794630 0.839290
			CHANNELS 3 Zrotation Yrotation Xrotation
			JOINT LeftLeg
			{
				OFFSET 2.448110 -6.726130 0.000000
				CHANNELS 3 Zrotation Yrotation Xrotation
				JOINT LeftFoot
				{
					OFFSET 2.562200 -7.039590 0.000000
					CHANNELS 3 Zrotation Yrotation Xrotation
					JOINT LeftToeBase
					{
						OFFSET 0.157640 -0.433110 2.322550
						CHANNELS 3 Zrotation Yrotation Xrotation
						End Site
						{
							OFFSET 0.000000 0.000000 0.000000
						}
					}
				}
			}
		}
	}
	JOINT RHipJoint
	{
		OFFSET 0.000000 0.000000 0.000000
		CHANNELS 3 Zrotation Yrotation Xrotation
		JOINT RightUpLeg
		{
			OFFSET -1.305520 -1.794630 0.839290
			CHANNELS 3 Zrotation Yrotation Xrotation
			JOINT RightLeg
			{
				OFFSET -2.542530 -6.985550 0.000000
				CHANNELS 3 Zrotation Yrotation Xrotation
				JOINT RightFoot
				{
					OFFSET -2.568260 -7.056230 0.000000
					CHANNELS 3 Zrotation Yrotation Xrotation
					JOINT RightToeBase
					{
						OFFSET -0.164730 -0.452590 2.363150
						CHANNELS 3 Zrotation Yrotation Xrotation
						End Site
						{
							OFFSET 0.000000 0.000000 0.000000
						}
					}
				}
			}
		}
	}
}
MOTION
Frames: 25
Frame Time: 0.008333
-11.791840 16.876790 -2.514928 39.129020 86.102649 50.627644 -9.393681 0.723478 2.729614 -14.505453 0.571636 -35.759342 -2.785585 -0.133487 12.724168 0.312557 3.275946 6.483216 1.274300 -0.000000 -21.958800 10.963907 -3.928880 -1.080014 2.627126 -9.775786 -3.780235 0.737423 -2.845396 36.530761 0.369442 7.332879 7.266028 1.704600 -0.000001 -83.258600
-11.622816 16.896906 -2.519761 41.124606 85.947285 52.585579 -9.275620 0.804069 2.738693 -14.742975 0.294393 -35.336151 -2.760700 -0.101637 13.483554 0.371547 3.616487 5.877347 1.313400 -0.000000 -21.202800 11.248818 -3.865745 -1.120476 2.059235 -10.227282 -5.427780 0.383392 -3.046013 39.682868 0.179289 6.903338 10.026676 1.999300 0.000000 -82.747100
-11.458441 16.916391 -2.526467 42.124440 85.755623 53.574300 -9.184076 0.870939 2.749549 -14.929101 0.015398 -34.907222 -2.733807 -0.078465 14.184059 0.441981 3.983943 5.117096 1.337800 -0.000000 -20.604900 11.479054 -3.757443 -1.145939 1.622329 -10.486712 -7.134070 0.050180 -3.212701 42.846123 -0.046026 6.225475 12.630392 2.172899 -0.000000 -81.127499
-11.298609 16.935313 -2.534799 42.282893 85.537696 53.738631 -9.119096 0.923206 2.755101 -15.071611 -0.239091 -34.463846 -2.706141 -0.063583 14.815289 0.520817 4.365585 4.251745 1.345000 -0.000000 -20.165300 11.656930 -3.614823 -1.157203 1.314137 -10.562314 -8.871535 -0.252090 -3.352380 45.977152 -0.294251 5.274413 14.948860 2.168200 0.000000 -78.672200
-11.143029 16.953943 -2.544415 41.764159 85.298750 53.231998 -9.078593 0.962658 2.749243 -15.179654 -0.444100 -33.995945 -2.679164 -0.056132 15.365618 0.604451 4.747851 3.332961 1.334000 0.000000 -19.880300 11.788348 -3.448542 -1.156444 1.124006 -10.473230 -10.613664 -0.520331 -3.473056 49.035886 -0.553673 4.037773 16.871541 1.946800 0.000000 -75.721900
-10.991330 16.972636 -2.555282 40.663545 85.045506 52.140782 -9.064581 0.991225 2.726788 -15.253590 -0.569859 -33.503239 -2.653264 -0.053789 15.834910 0.688175 5.108881 2.404890 1.303700 -0.000000 -19.742400 11.875588 -3.269325 -1.145194 1.050708 -10.238117 -12.337081 -0.757120 -3.581281 51.983713 -0.815342 2.516200 18.319239 1.496300 -0.000001 -72.604200
-10.843035 16.991730 -2.566922 39.190232 84.778726 50.665949 -9.069892 1.013227 2.685468 -15.305676 -0.610681 -32.972967 -2.630047 -0.056057 16.209908 0.768927 5.444877 1.512608 1.259400 -0.000000 -19.734700 11.930674 -3.083438 -1.127092 1.068605 -9.888598 -14.023400 -0.968037 -3.682754 54.790409 -1.072777 0.745719 19.240773 0.841700 0.000000 -69.543600
-10.697751 17.011576 -2.579541 37.387513 84.507653 48.844839 -9.098911 1.030251 2.623593 -15.326022 -0.546939 -32.412618 -2.608680 -0.059911 16.501926 0.841851 5.732387 0.681788 1.201700 -0.000000 -19.838700 11.953071 -2.898170 -1.103472 1.182639 -9.444173 -15.655125 -1.159052 -3.779219 57.424852 -1.322187 -1.224236 19.620210 0.033099 0.000000 -66.651099
-10.554990 17.032406 -2.592754 35.428526 84.236423 46.846827 -9.144822 1.045737 2.542774 -15.320964 -0.389993 -31.812923 -2.589821 -0.065062 16.705372 0.905075 5.972264 -0.063613 1.137300 0.000000 -20.028100 11.952659 -2.716069 -1.077752 1.370037 -8.935894 -17.220148 -1.334449 -3.872092 59.862772 -1.560161 -3.307406 19.466340 -0.850300 0.000001 -63.933900
-10.414362 17.054295 -2.606482 33.403697 83.973814 44.760792 -9.205362 1.061326 2.445666 -15.287568 -0.151420 -31.172270 -2.572964 -0.070619 16.824541 0.957000 6.160853 -0.714410 1.069900 0.000000 -20.275799 11.933406 -2.539535 -1.052451 1.620143 -8.388296 -18.707928 -1.496178 -3.960728 62.080138 -1.783309 -5.405391 18.817058 -1.720599 0.000000 -61.334200
-10.275463 17.077239 -2.620709 31.377611 83.730491 42.653692 -9.278251 1.077970 2.337419 -15.221050 0.148135 -30.493449 -2.557235 -0.076139 16.866264 0.997403 6.299167 -1.271979 1.002700 -0.000000 -20.554601 11.898004 -2.370031 -1.028756 1.924655 -7.822285 -20.115020 -1.643882 -4.043314 64.056293 -1.987502 -7.413427 17.736658 -2.493400 -0.000000 -58.774000
-10.137740 17.101034 -2.635189 29.437304 83.517364 40.622627 -9.358024 1.096650 2.227772 -15.121714 0.468659 -29.782922 -2.541769 -0.082506 16.834559 1.028491 6.400922 -1.744319 0.939301 -0.000000 -20.833999 11.850790 -2.207858 -1.006315 2.269371 -7.259595 -21.449968 -1.775292 -4.117960 65.776659 -2.167322 -9.227796 16.309514 -3.099900 0.000000 -56.152500
-10.001330 17.125481 -2.649784 27.592038 83.340445 38.670502 -9.443102 1.116873 2.115013 -14.990111 0.802023 -29.025393 -2.526556 -0.089834 16.729482 1.050340 6.464883 -2.144333 0.879100 -0.000000 -21.099000 11.793273 -2.052944 -0.988397 2.640895 -6.711363 -22.697096 -1.887089 -4.183093 67.224440 -2.317368 -10.765639 14.644477 -3.502100 -0.000000 -53.478501
-9.866085 17.150243 -2.664484 25.822886 83.206638 36.780479 -9.532874 1.138191 2.001777 -14.822759 1.133627 -28.220882 -2.511095 -0.098170 16.557662 1.064001 6.492311 -2.491115 0.821100 0.000001 -21.334100 11.725184 -1.905150 -0.975634 3.034067 -6.186548 -23.855090 -1.975954 -4.236378 68.390808 -2.432191 -11.968427 12.854646 -3.694100 -0.000000 -50.742900
-9.731304 17.174898 -2.678829 24.193806 83.124008 35.038680 -9.620311 1.161153 1.902202 -14.628574 1.414407 -27.391681 -2.494962 -0.109914 16.322901 1.074118 6.507026 -2.802563 0.767000 -0.000000 -21.516101 11.650530 -1.763471 -0.962472 3.434367 -5.697258 -24.958408 -2.039191 -4.276440 69.279775 -2.507021 -12.800150 11.046353 -3.695700 -0.000000 -47.942900
-9.596949 17.199105 -2.692552 22.684042 83.092392 33.426676 -9.703943 1.185536 1.816788 -14.413288 1.641847 -26.538957 -2.478772 -0.125827 16.026803 1.081415 6.509459 -3.093638 0.715200 -0.000000 -21.645100 11.570130 -1.627347 -0.946912 3.833763 -5.243621 -26.011382 -2.075395 -4.302271 69.891779 -2.540131 -13.261156 9.324799 -3.551700 0.000000 -45.209900
-9.462959 17.222546 -2.705467 21.256160 83.108188 31.909019 -9.783337 1.211016 1.743651 -14.182162 1.824572 -25.666757 -2.463531 -0.146202 15.672676 1.085660 6.494385 -3.376827 0.663799 -0.000000 -21.724800 11.484246 -1.496009 -0.927282 4.227508 -4.822882 -27.018067 -2.084570 -4.313263 70.230328 -2.532258 -13.376112 7.772930 -3.314100 0.000000 -42.683800
-9.329118 17.244966 -2.717280 19.891818 83.165583 30.472316 -9.857190 1.237830 1.682377 -13.943601 1.972238 -24.785170 -2.450455 -0.171643 15.263314 1.086594 6.458151 -3.657758 0.611900 -0.000000 -21.767200 11.394166 -1.369057 -0.899471 4.610266 -4.429476 -27.989746 -2.068061 -4.309481 70.303460 -2.486946 -13.188720 6.447618 -3.031400 -0.000000 -40.515400
-9.195372 17.266159 -2.727831 18.552751 83.254988 29.079291 -9.925792 1.266126 1.628811 -13.703624 2.108682 -23.902104 -2.441006 -0.202009 14.802613 1.082641 6.389859 -3.937207 0.558900 0.000000 -21.791500 11.300422 -1.246387 -0.860556 4.980522 -4.053982 -28.929904 -2.028031 -4.291405 70.119809 -2.409891 -12.754766 5.373353 -2.740600 -0.000000 -38.822700
-9.061521 17.285972 -2.736829 17.243754 83.366714 27.738134 -9.988234 1.296521 1.581339 -13.472172 2.252093 -23.029465 -2.436614 -0.237577 14.294291 1.072646 6.283111 -4.209233 0.505601 0.000000 -21.819400 11.204632 -1.128574 -0.805814 5.332815 -3.687361 -29.848338 -1.966941 -4.260398 69.691972 -2.307971 -12.132854 4.541533 -2.463600 0.000000 -37.659200
-8.927496 17.304328 -2.744216 15.940088 83.489551 26.421876 -10.045795 1.329235 1.534063 -13.253419 2.432839 -22.173338 -2.438590 -0.277591 13.743730 1.054275 6.124515 -4.464987 0.452500 0.000000 -21.875100 11.107021 -1.016386 -0.733495 5.666142 -3.319184 -30.742449 -1.886839 -4.217925 69.030850 -2.188453 -11.381381 3.914786 -2.209500 -0.000000 -36.996800
-8.793272 17.321145 -2.749923 14.645119 83.613874 25.131540 -10.099369 1.364456 1.482310 -13.051916 2.674488 -21.339068 -2.447942 -0.321276 13.157257 1.025713 5.904271 -4.693664 0.401000 -0.000000 -21.979600 11.007914 -0.910857 -0.642232 5.977931 -2.940609 -31.609744 -1.789131 -4.165773 68.148065 -2.058120 -10.552646 3.435933 -1.978600 -0.000000 -36.741000
-8.658831 17.336419 -2.753953 13.376722 83.732232 23.882219 -10.150010 1.402215 1.422224 -12.870760 2.994315 -20.530077 -2.465246 -0.367710 12.542095 0.985685 5.615736 -4.884388 0.352500 -0.000000 -22.147800 10.907275 -0.813176 -0.531754 6.264853 -2.545481 -32.445239 -1.674516 -4.105645 67.054768 -1.922671 -9.690153 3.040644 -1.767500 0.000000 -36.760000
-8.524228 17.350074 -2.756369 12.164495 83.840325 22.699564 -10.198817 1.442227 1.350848 -12.711249 3.400964 -19.746591 -2.490478 -0.415838 11.906022 0.933856 5.257213 -5.028586 0.308300 -0.000000 -22.387300 10.804652 -0.724334 -0.403156 6.523226 -2.130377 -33.241022 -1.543098 -4.038854 65.760388 -1.786543 -8.827687 2.669114 -1.572801 0.000000 -36.915801
-8.389429 17.362031 -2.757215 11.069973 83.938427 21.645560 -10.245997 1.484019 1.269129 -12.575525 3.885792 -18.991250 -2.522985 -0.465093 11.257407 0.871547 4.836318 -5.121927 0.269300 -0.000000 -22.696400 10.699531 -0.645039 -0.257094 6.747235 -1.695614 -33.995659 -1.394719 -3.966250 64.274283 -1.652894 -7.988216 2.274512 -1.392201 0.000000 -37.076600
